<?xml version="1.0" encoding="UTF-8" standalone="no"?>
<!-- Created with Inkscape (http://www.inkscape.org/) -->

<svg
   width="82.394997mm"
   height="17.919016mm"
   viewBox="0 0 82.394997 17.919016"
   version="1.1"
   id="svg2072"
   inkscape:version="1.1.2 (b8e25be833, 2022-02-05)"
   sodipodi:docname="logo_for_black_background.svg"
   inkscape:export-filename="C:\Users\vaarh\OneDrive\development\visionity\logo_for_black.png"
   inkscape:export-xdpi="96"
   inkscape:export-ydpi="96"
   xmlns:inkscape="http://www.inkscape.org/namespaces/inkscape"
   xmlns:sodipodi="http://sodipodi.sourceforge.net/DTD/sodipodi-0.dtd"
   xmlns:xlink="http://www.w3.org/1999/xlink"
   xmlns="http://www.w3.org/2000/svg"
   xmlns:svg="http://www.w3.org/2000/svg"
   xmlns:rdf="http://www.w3.org/1999/02/22-rdf-syntax-ns#"
   xmlns:cc="http://creativecommons.org/ns#"
   xmlns:dc="http://purl.org/dc/elements/1.1/">
  <defs
     id="defs2066">
    <linearGradient
       gradientTransform="matrix(0.35277768,0,0,0.35277768,71.62854,66.357452)"
       inkscape:collect="always"
       xlink:href="#linearGradient2041"
       id="linearGradient2043"
       x1="94.702026"
       y1="42.081501"
       x2="121.97615"
       y2="7.2312312"
       gradientUnits="userSpaceOnUse" />
    <linearGradient
       inkscape:collect="always"
       id="linearGradient2041">
      <stop
         style="stop-color:#ff0066;stop-opacity:1;"
         offset="0"
         id="stop2037" />
      <stop
         style="stop-color:#3771c8;stop-opacity:1"
         offset="1"
         id="stop2039" />
    </linearGradient>
  </defs>
  <sodipodi:namedview
     id="base"
     pagecolor="#ffffff"
     bordercolor="#666666"
     borderopacity="1.0"
     inkscape:pageopacity="0.0"
     inkscape:pageshadow="2"
     inkscape:zoom="1.979899"
     inkscape:cx="179.55461"
     inkscape:cy="-47.224631"
     inkscape:document-units="mm"
     inkscape:current-layer="layer1"
     showgrid="false"
     inkscape:window-width="1920"
     inkscape:window-height="991"
     inkscape:window-x="-9"
     inkscape:window-y="-9"
     inkscape:window-maximized="1"
     inkscape:pagecheckerboard="0" />
  <metadata
     id="metadata2069">
    <rdf:RDF>
      <cc:Work
         rdf:about="">
        <dc:format>image/svg+xml</dc:format>
        <dc:type
           rdf:resource="http://purl.org/dc/dcmitype/StillImage" />
      </cc:Work>
    </rdf:RDF>
  </metadata>
  <g
     inkscape:label="Laag 1"
     inkscape:groupmode="layer"
     id="layer1"
     transform="translate(-71.62861,-66.35745)">
    <path
       inkscape:connector-curvature="0"
       id="path1071"
       d="m 81.09396,70.778587 c 0,0.02859 0,0.07448 -0.004,0.120217 0,0.04574 -0.004,0.09734 -0.0166,0.154627 -0.0125,0.05732 -0.0208,0.125935 -0.0416,0.200439 -0.0166,0.07447 -0.0416,0.16034 -0.0686,0.25197 l -2.74322,8.194986 c -0.0333,0.12023 -0.0802,0.2119 -0.13755,0.2806 -0.0573,0.0687 -0.1546,0.12592 -0.28633,0.1718 -0.13174,0.0399 -0.31501,0.063 -0.54403,0.0745 -0.22898,0.017 -0.52686,0.0228 -0.8934,0.0228 -0.36072,0 -0.65856,-0.006 -0.88762,-0.0228 -0.22317,-0.017 -0.40643,-0.0458 -0.5326,-0.0859 -0.13174,-0.0458 -0.22898,-0.0973 -0.28633,-0.1718 -0.0573,-0.0687 -0.10306,-0.16033 -0.13755,-0.26917 l -2.74312,-8.194989 c -0.0416,-0.137367 -0.0686,-0.257701 -0.0972,-0.36651 -0.0249,-0.103062 -0.0332,-0.183255 -0.0416,-0.229068 -0.004,-0.05161 -0.004,-0.09735 -0.004,-0.131654 0,-0.06876 0.0249,-0.131649 0.0573,-0.177524 0.0416,-0.05161 0.10306,-0.09734 0.20031,-0.131654 0.0972,-0.03428 0.22316,-0.05732 0.39521,-0.06876 0.16623,-0.01716 0.37235,-0.02286 0.62996,-0.02286 0.2747,0 0.50397,0.01172 0.67577,0.02859 0.16623,0.01716 0.30337,0.04002 0.40102,0.06876 0.10307,0.02859 0.17164,0.07448 0.21195,0.131654 0.0416,0.05732 0.0744,0.131649 0.10306,0.20617 l 2.07308,6.654485 0.0632,0.25197 0.0632,-0.25197 2.04445,-6.654485 c 0.0208,-0.07448 0.0573,-0.148908 0.0972,-0.20617 0.0457,-0.05732 0.11429,-0.103062 0.21195,-0.131654 0.0972,-0.02859 0.22316,-0.05161 0.38357,-0.06876 0.16041,-0.01716 0.36654,-0.02859 0.62997,-0.02859 0.25184,0 0.45813,0.0059 0.6185,0.02286 0.16041,0.01172 0.28633,0.03433 0.37235,0.06876 0.0914,0.03433 0.14877,0.08019 0.18327,0.131654 0.0332,0.04574 0.0515,0.10878 0.0515,0.177524"
       style="fill:#cccccc;fill-opacity:1;fill-rule:nonzero;stroke:none;stroke-width:0.352778"
       inkscape:export-filename="C:\Users\vaarh\OneDrive\development\visionity\logo_for_black.png"
       inkscape:export-xdpi="96"
       inkscape:export-ydpi="96" />
    <path
       inkscape:connector-curvature="0"
       id="path1073"
       d="m 84.91943,70.49797 c -0.0972,-0.04002 -0.2348,-0.06876 -0.39521,-0.08591 -0.16041,-0.02286 -0.37235,-0.03433 -0.62423,-0.03433 -0.25183,0 -0.45813,0.01172 -0.62419,0.03433 -0.16623,0.01716 -0.29215,0.04574 -0.39521,0.08591 -0.0972,0.03433 -0.16623,0.08019 -0.21194,0.13165 -0.0416,0.0516 -0.0573,0.10878 -0.0573,0.177524 v 9.036822 c 0,0.0687 0.0166,0.12591 0.0573,0.17753 0.0457,0.0516 0.1147,0.0973 0.21194,0.13165 0.10306,0.0287 0.22898,0.0573 0.39521,0.0745 0.16623,0.017 0.37236,0.0229 0.62419,0.0229 0.25184,0 0.46386,-0.006 0.62423,-0.0229 0.16041,-0.017 0.29797,-0.0457 0.39521,-0.0745 0.0973,-0.0345 0.16623,-0.0802 0.20613,-0.13165 0.0457,-0.0516 0.0632,-0.1088 0.0632,-0.17753 v -9.03682 c 0,-0.06876 -0.0166,-0.125936 -0.0632,-0.177525 -0.0416,-0.05161 -0.10888,-0.09734 -0.20613,-0.131649"
       style="fill:#cccccc;fill-opacity:1;fill-rule:nonzero;stroke:none;stroke-width:0.352778"
       inkscape:export-filename="C:\Users\vaarh\OneDrive\development\visionity\logo_for_black.png"
       inkscape:export-xdpi="96"
       inkscape:export-ydpi="96" />
    <path
       inkscape:connector-curvature="0"
       id="path1075"
       d="m 94.18534,77.284176 c 0,0.51541 -0.0972,0.96783 -0.29215,1.36298 -0.1949,0.38941 -0.4696,0.72156 -0.82466,0.98499 -0.3549,0.26343 -0.77309,0.46387 -1.25416,0.59558 -0.48676,0.13165 -1.01362,0.1947 -1.58059,0.1947 -0.33786,0 -0.66429,-0.0229 -0.97352,-0.0745 -0.315,-0.0516 -0.58987,-0.11449 -0.83613,-0.1947 -0.24644,-0.0745 -0.45239,-0.15464 -0.61276,-0.2348 -0.16623,-0.0859 -0.28633,-0.16033 -0.36072,-0.22906 -0.0744,-0.0745 -0.13174,-0.18326 -0.17163,-0.33787 -0.0416,-0.14891 -0.0632,-0.37797 -0.0632,-0.67576 0,-0.1947 0.004,-0.35506 0.0208,-0.46959 0.0125,-0.12022 0.0332,-0.21762 0.0632,-0.28635 0.0208,-0.0687 0.0573,-0.1145 0.0972,-0.14323 0.0416,-0.0229 0.0918,-0.0343 0.1546,-0.0343 0.0744,0 0.18908,0.0457 0.33204,0.12594 0.14878,0.0859 0.33204,0.17752 0.54976,0.2806 0.21776,0.10306 0.4696,0.19472 0.76166,0.28635 0.29215,0.0859 0.6185,0.13165 0.98504,0.13165 0.2348,0 0.44092,-0.0286 0.61845,-0.0745 0.18327,-0.0457 0.33786,-0.1145 0.47533,-0.20044 0.13174,-0.0916 0.22898,-0.20044 0.29797,-0.33788 0.0686,-0.13165 0.10306,-0.28634 0.10306,-0.46387 0,-0.20616 -0.0632,-0.37797 -0.18908,-0.52686 -0.12592,-0.14322 -0.29215,-0.26914 -0.50393,-0.37795 -0.20612,-0.10878 -0.44096,-0.21189 -0.70439,-0.30352 -0.26348,-0.0973 -0.5326,-0.20044 -0.80746,-0.31498 -0.27469,-0.11449 -0.54403,-0.24625 -0.80746,-0.40087 -0.26347,-0.14324 -0.49823,-0.32642 -0.7044,-0.54404 -0.21194,-0.21762 -0.37817,-0.47532 -0.50396,-0.78457 -0.12592,-0.30352 -0.18909,-0.67003 -0.18909,-1.09381 0,-0.43522 0.086,-0.836098 0.25766,-1.196893 0.16623,-0.360779 0.41225,-0.670028 0.73303,-0.92773 0.32082,-0.257701 0.71009,-0.45814 1.17395,-0.6013 0.45817,-0.137368 0.9793,-0.211905 1.55196,-0.211905 0.28633,0 0.56123,0.02286 0.83039,0.06304 0.2693,0.04002 0.5154,0.09163 0.73303,0.148908 0.21776,0.06304 0.40103,0.125936 0.5555,0.200423 0.14878,0.06876 0.25766,0.131653 0.32082,0.183255 0.0632,0.05161 0.10888,0.103062 0.13756,0.154622 0.0291,0.05161 0.0457,0.108781 0.0632,0.183256 0.0125,0.06876 0.0208,0.154622 0.0332,0.257701 0.0125,0.10878 0.0166,0.240533 0.0166,0.39516 0,0.183255 -0.004,0.332146 -0.0166,0.446675 -0.0125,0.114499 -0.0291,0.20617 -0.0515,0.274885 -0.0208,0.06304 -0.0573,0.108783 -0.0972,0.137363 -0.0416,0.0229 -0.0914,0.0343 -0.14338,0.0343 -0.0632,0 -0.15459,-0.0343 -0.28633,-0.108781 -0.13173,-0.06876 -0.29215,-0.148891 -0.48676,-0.229072 -0.1949,-0.08016 -0.41806,-0.154597 -0.67576,-0.223312 -0.25766,-0.07448 -0.5498,-0.10878 -0.87619,-0.10878 -0.22898,0 -0.42954,0.02286 -0.60134,0.06876 -0.17163,0.04574 -0.30918,0.114499 -0.41807,0.20617 -0.10888,0.08591 -0.1949,0.18899 -0.24643,0.309255 -0.0574,0.12021 -0.086,0.24625 -0.086,0.37796 0,0.21189 0.0686,0.38941 0.1949,0.53259 0.13174,0.14323 0.30337,0.26343 0.51539,0.37224 0.21195,0.10878 0.45244,0.21189 0.72161,0.30352 0.26928,0.0973 0.53829,0.20044 0.81892,0.31497 0.2747,0.10878 0.54976,0.24052 0.81889,0.38942 0.26929,0.14889 0.5097,0.33215 0.7216,0.54404 0.21194,0.21762 0.37817,0.47532 0.50966,0.77884 0.13174,0.30352 0.1949,0.65858 0.1949,1.0709"
       style="fill:#cccccc;fill-opacity:1;fill-rule:nonzero;stroke:none;stroke-width:0.352778"
       inkscape:export-filename="C:\Users\vaarh\OneDrive\development\visionity\logo_for_black.png"
       inkscape:export-xdpi="96"
       inkscape:export-ydpi="96" />
    <path
       inkscape:connector-curvature="0"
       id="path1077"
       d="m 98.42888,70.49797 c -0.0972,-0.04002 -0.22898,-0.06876 -0.39521,-0.08591 -0.16623,-0.02286 -0.37235,-0.03433 -0.62419,-0.03433 -0.25184,0 -0.45817,0.01172 -0.62423,0.03433 -0.16041,0.01716 -0.29215,0.04574 -0.39521,0.08591 -0.0973,0.03433 -0.16623,0.08019 -0.20613,0.13165 -0.0457,0.0516 -0.0632,0.10878 -0.0632,0.177524 v 9.036822 c 0,0.0687 0.0166,0.12591 0.0632,0.17753 0.0416,0.0516 0.10888,0.0973 0.20613,0.13165 0.10306,0.0287 0.2348,0.0573 0.39521,0.0745 0.16623,0.017 0.37235,0.0229 0.62423,0.0229 0.25184,0 0.45813,-0.006 0.62419,-0.0229 0.16623,-0.017 0.29797,-0.0457 0.39521,-0.0745 0.0972,-0.0345 0.16623,-0.0802 0.20612,-0.13165 0.0457,-0.0516 0.0632,-0.1088 0.0632,-0.17753 v -9.03682 c 0,-0.06876 -0.0166,-0.125936 -0.0632,-0.177525 -0.0416,-0.05161 -0.10888,-0.09734 -0.20612,-0.131649"
       style="fill:#cccccc;fill-opacity:1;fill-rule:nonzero;stroke:none;stroke-width:0.352778"
       inkscape:export-filename="C:\Users\vaarh\OneDrive\development\visionity\logo_for_black.png"
       inkscape:export-xdpi="96"
       inkscape:export-ydpi="96" />
    <path
       inkscape:connector-curvature="0"
       id="path1079"
       d="m 136.05934,70.49797 c -0.0972,-0.04002 -0.2348,-0.06876 -0.40103,-0.08591 -0.17163,-0.02286 -0.38357,-0.03433 -0.64139,-0.03433 -0.25766,0 -0.46956,0.01172 -0.63566,0.03433 -0.17163,0.01716 -0.30337,0.04574 -0.40643,0.08591 -0.10306,0.03433 -0.17163,0.08019 -0.21194,0.13165 -0.0457,0.0516 -0.0632,0.10878 -0.0632,0.177524 v 9.036822 c 0,0.0687 0.0166,0.12591 0.0632,0.17753 0.0416,0.0516 0.10888,0.0973 0.21194,0.13165 0.10306,0.0287 0.2348,0.0573 0.40643,0.0745 0.16623,0.017 0.37775,0.0229 0.63566,0.0229 0.25765,0 0.4696,-0.006 0.64139,-0.0229 0.16623,-0.017 0.30337,-0.0457 0.40103,-0.0745 0.10307,-0.0345 0.17163,-0.0802 0.21776,-0.13165 0.0416,-0.0516 0.0632,-0.1088 0.0632,-0.17753 v -9.03682 c 0,-0.06876 -0.0249,-0.125936 -0.0632,-0.177525 -0.0457,-0.05161 -0.11469,-0.09734 -0.21776,-0.131649"
       style="fill:#ff0066;fill-opacity:1;fill-rule:nonzero;stroke:none;stroke-width:0.352778"
       inkscape:export-filename="C:\Users\vaarh\OneDrive\development\visionity\logo_for_black.png"
       inkscape:export-xdpi="96"
       inkscape:export-ydpi="96" />
    <path
       inkscape:connector-curvature="0"
       id="path1081"
       d="m 138.62497,72.198822 v -1.666487 c 0,-0.05732 0.0249,-0.108781 0.0573,-0.148892 0.0416,-0.04574 0.10888,-0.08591 0.21195,-0.114498 0.10306,-0.02859 0.2348,-0.05161 0.40643,-0.06876 0.17163,-0.01172 0.38357,-0.01716 0.63566,-0.01716 0.25765,0 0.47533,0.0059 0.64139,0.01716 0.17164,0.01716 0.30919,0.04002 0.40643,0.06876 0.0973,0.02859 0.16623,0.06876 0.21195,0.114498 0.0416,0.04002 0.0573,0.09163 0.0573,0.148892 v 1.666487 h 2.03298 c 0.0744,0 0.13173,0.01172 0.18327,0.04002 0.0573,0.02859 0.0972,0.07447 0.13173,0.137367 0.0333,0.06304 0.0632,0.154627 0.0802,0.263437 0.0166,0.1145 0.0291,0.24625 0.0291,0.41233 0,0.30351 -0.0416,0.52113 -0.10888,0.65284 -0.0686,0.13165 -0.17163,0.20044 -0.30337,0.20044 h -2.04445 v 3.50478 c 0,0.40659 0.0802,0.71011 0.24643,0.91628 0.1546,0.20044 0.4467,0.30352 0.85903,0.30352 0.13756,0 0.26347,-0.0117 0.37235,-0.0286 0.1147,-0.0229 0.21195,-0.0457 0.30338,-0.0687 0.086,-0.0229 0.15459,-0.0457 0.21775,-0.0688 0.0573,-0.0172 0.11429,-0.0286 0.16041,-0.0286 0.0457,0 0.086,0.0117 0.12011,0.0286 0.0416,0.0229 0.0686,0.063 0.0918,0.12021 0.0208,0.0573 0.0416,0.13737 0.0574,0.24052 0.0166,0.0973 0.0291,0.22334 0.0291,0.37796 0,0.24626 -0.0249,0.43524 -0.0574,0.56695 -0.0416,0.13166 -0.0914,0.22338 -0.1546,0.27491 -0.0632,0.0573 -0.15459,0.10306 -0.28051,0.14324 -0.1201,0.0399 -0.26347,0.0802 -0.4238,0.1088 -0.16623,0.0345 -0.34368,0.0573 -0.53829,0.0687 -0.18909,0.0229 -0.38357,0.0287 -0.58413,0.0287 -0.52113,0 -0.97356,-0.0516 -1.35726,-0.16033 -0.38357,-0.10306 -0.7044,-0.26916 -0.95636,-0.48677 -0.25184,-0.22335 -0.43523,-0.49824 -0.5555,-0.83612 -0.12009,-0.33214 -0.17745,-0.72729 -0.17745,-1.18543 v -3.81988"
       style="fill:#3771c8;fill-opacity:1;fill-rule:nonzero;stroke:none;stroke-width:0.352778"
       inkscape:export-filename="C:\Users\vaarh\OneDrive\development\visionity\logo_for_black.png"
       inkscape:export-xdpi="96"
       inkscape:export-ydpi="96" />
    <path
       inkscape:connector-curvature="0"
       id="path1083"
       d="m 130.34979,71.339805 c -0.26929,-0.34933 -0.6185,-0.624214 -1.05947,-0.83037 -0.43522,-0.20044 -0.97352,-0.303531 -1.60922,-0.303531 -0.57839,0 -1.13389,0.137368 -1.66649,0.406609 -0.53829,0.26915 -1.06515,0.675761 -1.58055,1.219797 v -1.047991 c 0,-0.06876 -0.0166,-0.125935 -0.0515,-0.177537 -0.0332,-0.05161 -0.0918,-0.09163 -0.17163,-0.125935 -0.0802,-0.03433 -0.1949,-0.05732 -0.34368,-0.07447 -0.14337,-0.01716 -0.33204,-0.02859 -0.55549,-0.02859 -0.21777,0 -0.39521,0.01172 -0.53834,0.02859 -0.14337,0.01716 -0.25765,0.04002 -0.3495,0.07447 -0.0914,0.03433 -0.15459,0.07448 -0.18908,0.125935 -0.0333,0.05161 -0.0515,0.108781 -0.0515,0.177537 v 9.059707 c 0,0.0687 0.0249,0.12592 0.0632,0.17754 0.0416,0.0516 0.10888,0.0916 0.21194,0.13165 0.10306,0.0287 0.24061,0.0573 0.40643,0.0745 0.16623,0.017 0.37775,0.0229 0.63566,0.0229 0.25765,0 0.47533,-0.006 0.64139,-0.0229 0.16623,-0.017 0.30337,-0.0457 0.40103,-0.0745 0.10306,-0.0399 0.17745,-0.0802 0.21776,-0.13165 0.0416,-0.0516 0.0632,-0.1088 0.0632,-0.17754 v -6.02453 c 0.37235,-0.45242 0.72734,-0.79602 1.0652,-1.03082 0.34368,-0.240525 0.6815,-0.360784 1.01935,-0.360784 0.26348,0 0.49823,0.05161 0.69867,0.148892 0.19448,0.09734 0.36071,0.240522 0.48676,0.418062 0.12592,0.17752 0.21776,0.39514 0.28633,0.64139 0.0686,0.25197 0.0972,0.6013 0.0972,1.03654 v 5.17125 c 0,0.0687 0.0208,0.12592 0.0632,0.17754 0.0457,0.0516 0.11428,0.0916 0.21194,0.13165 0.0972,0.0287 0.2348,0.0573 0.40103,0.0745 0.17163,0.017 0.38939,0.0229 0.64713,0.0229 0.25184,0 0.46386,-0.006 0.6357,-0.0229 0.17163,-0.017 0.30337,-0.0457 0.40103,-0.0745 0.0972,-0.0399 0.16623,-0.0802 0.21194,-0.13165 0.0416,-0.0516 0.0632,-0.1088 0.0632,-0.17754 v -5.59502 c 0,-0.65858 -0.0632,-1.2198 -0.18327,-1.683672 -0.1147,-0.46959 -0.30919,-0.876199 -0.57844,-1.225529"
       style="fill:#cccccc;fill-opacity:1;fill-rule:nonzero;stroke:none;stroke-width:0.352778"
       inkscape:export-filename="C:\Users\vaarh\OneDrive\development\visionity\logo_for_black.png"
       inkscape:export-xdpi="96"
       inkscape:export-ydpi="96" />
    <path
       inkscape:connector-curvature="0"
       id="path1085"
       d="m 153.89819,70.520885 c -0.086,-0.05161 -0.21776,-0.09163 -0.39521,-0.10878 -0.18327,-0.02286 -0.41225,-0.03428 -0.68146,-0.03428 -0.3495,0 -0.58986,0.01172 -0.73303,0.03428 -0.13755,0.01716 -0.2348,0.04574 -0.29797,0.09163 -0.0573,0.04002 -0.10888,0.125935 -0.14337,0.257701 l -1.82112,4.57567 h -0.0291 l -1.99276,-4.484041 c -0.0457,-0.114499 -0.086,-0.206158 -0.13173,-0.263436 -0.0457,-0.06876 -0.10888,-0.108781 -0.20031,-0.143232 -0.086,-0.02859 -0.21194,-0.05161 -0.36654,-0.05732 -0.16041,-0.0059 -0.37235,-0.01172 -0.64712,-0.01172 -0.29797,0 -0.53256,0.01172 -0.71583,0.03433 -0.17745,0.01716 -0.30337,0.05732 -0.38357,0.103062 -0.0744,0.05732 -0.11429,0.125935 -0.11429,0.223354 0,0.09163 0.0416,0.223337 0.12592,0.400861 l 2.90918,6.156262 c 0.0291,0.0745 0.0802,0.13737 0.14877,0.20044 0.0632,0.063 0.13756,0.10877 0.21776,0.14323 l -1.12242,2.24489 c -0.0457,0.0802 -0.0686,0.15463 -0.0632,0.21759 0.0125,0.0573 0.0515,0.1088 0.12591,0.1489 0.0744,0.0399 0.18909,0.0687 0.34368,0.0859 0.14878,0.017 0.3495,0.0287 0.60703,0.0287 0.48676,0 0.8533,-0.0287 1.10526,-0.0859 0.25766,-0.0516 0.40643,-0.14324 0.4696,-0.26916 l 1.0194,-2.37087 2.81754,-6.568586 c 0.0515,-0.125935 0.0744,-0.234803 0.0744,-0.326432 0,-0.09163 -0.0416,-0.166076 -0.12592,-0.223337"
       style="fill:#cccccc;fill-opacity:1;fill-rule:nonzero;stroke:none;stroke-width:0.352778"
       inkscape:export-filename="C:\Users\vaarh\OneDrive\development\visionity\logo_for_black.png"
       inkscape:export-xdpi="96"
       inkscape:export-ydpi="96" />
    <path
       inkscape:connector-curvature="0"
       id="path1087"
       d="m 110.50659,80.708776 c -2.98365,0 -5.39459,-2.41669 -5.39459,-5.3946 0,-2.977912 2.41094,-5.388874 5.39459,-5.388874 0.16623,0 0.32082,0.02859 0.48676,0.04574 -0.78456,0.612764 -1.29426,1.551944 -1.29426,2.622849 0,1.844015 1.48896,3.332975 3.32725,3.332975 1.16256,0 2.18766,-0.60131 2.78321,-1.50041 0.0457,0.29206 0.086,0.58413 0.086,0.88765 0,2.97791 -2.41095,5.3946 -5.38886,5.3946 m 0,-14.351256 c -4.9479,0 -8.96237,4.008735 -8.96237,8.956656 0,4.94791 4.01447,8.96236 8.96237,8.96236 4.94793,0 8.95663,-4.01445 8.95663,-8.96236 0,-4.947921 -4.0087,-8.956656 -8.95663,-8.956656"
       style="fill:url(#linearGradient2043);fill-opacity:1;fill-rule:nonzero;stroke:none;stroke-width:0.352778"
       inkscape:export-filename="C:\Users\vaarh\OneDrive\development\visionity\logo_for_black.png"
       inkscape:export-xdpi="96"
       inkscape:export-ydpi="96" />
  </g>
</svg>
